<?xml version="1.0" encoding="UTF-8" standalone="no"?>
<svg
   version="1.1"
   id="svg8"
   sodipodi:docname="pawns.svg"
   inkscape:export-filename="..\..\..\..\..\..\Desktop\playingpiece_128px_red.png"
   inkscape:export-xdpi="106.04"
   inkscape:export-ydpi="106.04"
   inkscape:version="1.2.2 (b0a8486541, 2022-12-01)"
   xmlns:inkscape="http://www.inkscape.org/namespaces/inkscape"
   xmlns:sodipodi="http://sodipodi.sourceforge.net/DTD/sodipodi-0.dtd"
   xmlns="http://www.w3.org/2000/svg"
   xmlns:svg="http://www.w3.org/2000/svg">
  <sodipodi:namedview
     id="namedview10"
     pagecolor="#ffffff"
     bordercolor="#000000"
     borderopacity="0.25"
     inkscape:showpageshadow="2"
     inkscape:pageopacity="0.0"
     inkscape:pagecheckerboard="0"
     inkscape:deskcolor="#d1d1d1"
     showgrid="false"
     inkscape:zoom="5.57"
     inkscape:cx="149.91023"
     inkscape:cy="75.13465"
     inkscape:window-width="3840"
     inkscape:window-height="2066"
     inkscape:window-x="2869"
     inkscape:window-y="-11"
     inkscape:window-maximized="1"
     inkscape:current-layer="svg8" />
  <defs
     id="defs2" />
  <g
     id="g7234">
    <ellipse
       style="fill:#000000;fill-opacity:1;stroke:none;stroke-width:3.2;stroke-dasharray:none;stroke-opacity:1;paint-order:markers stroke fill;stop-color:#000000;opacity:0.28787879"
       id="path955"
       cx="138.4201"
       cy="81.777374"
       rx="15.798923"
       ry="6.7324953"
       inkscape:export-filename="..\..\..\..\..\..\Desktop\playingpiece_128px_red.png"
       inkscape:export-xdpi="106.04"
       inkscape:export-ydpi="106.04" />
    <g
       id="g6"
       transform="translate(137.34291,58.168761)"
       style="stroke:#000000;stroke-opacity:1;stroke-width:3.2;stroke-dasharray:none;fill:#ff0000">
      <path
         stroke="none"
         fill="#ffffff"
         d="m 13,-13.1 q 0,5.35 -3.9,9.1 l -0.65,0.65 0.8,1.55 q 3.7,8.25 3.75,20 v 0.15 Q 13,21.5 9.25,23.75 5.45,26 0,26 -5.35,26 -9.15,23.75 -13,21.5 -13,18.35 V 18.2 q 0.05,-11.75 3.85,-20 L -8.4,-3.3 -9.15,-4 Q -13,-7.75 -13,-13.1 q 0,-5.4 3.85,-9.15 Q -5.35,-26 0,-26 q 5.35,0 9.1,3.75 3.9,3.75 3.9,9.15"
         id="path4"
         style="stroke:#000000;stroke-opacity:1;stroke-width:3.2;stroke-dasharray:none;fill:#ff0000" />
    </g>
    <ellipse
       style="fill:#ffffff;stroke:#ff0000;stroke-width:3.41365;stroke-dasharray:none;stroke-opacity:1;paint-order:markers stroke fill;stop-color:#000000"
       id="path899"
       cx="132.31598"
       cy="40.394974"
       rx="2.7657046"
       ry="2.5861714" />
  </g>
  <g
     id="g7244"
     transform="translate(40.21544)">
    <ellipse
       style="opacity:0.287879;fill:#000000;fill-opacity:1;stroke:none;stroke-width:3.2;stroke-dasharray:none;stroke-opacity:1;paint-order:markers stroke fill;stop-color:#000000"
       id="ellipse7236"
       cx="138.4201"
       cy="81.777374"
       rx="15.798923"
       ry="6.7324953"
       inkscape:export-filename="..\..\..\..\..\..\Desktop\playingpiece_128px_yellow.png"
       inkscape:export-xdpi="106.04"
       inkscape:export-ydpi="106.04" />
    <g
       id="g7240"
       transform="translate(137.34291,58.168761)"
       style="fill:#ffff00;stroke:#000000;stroke-width:3.2;stroke-dasharray:none;stroke-opacity:1">
      <path
         stroke="none"
         fill="#ffffff"
         d="m 13,-13.1 q 0,5.35 -3.9,9.1 l -0.65,0.65 0.8,1.55 q 3.7,8.25 3.75,20 v 0.15 Q 13,21.5 9.25,23.75 5.45,26 0,26 -5.35,26 -9.15,23.75 -13,21.5 -13,18.35 V 18.2 q 0.05,-11.75 3.85,-20 L -8.4,-3.3 -9.15,-4 Q -13,-7.75 -13,-13.1 q 0,-5.4 3.85,-9.15 Q -5.35,-26 0,-26 q 5.35,0 9.1,3.75 3.9,3.75 3.9,9.15"
         id="path7238"
         style="fill:#ffff00;stroke:#000000;stroke-width:3.2;stroke-dasharray:none;stroke-opacity:1" />
    </g>
    <ellipse
       style="fill:#ffffff;stroke:none;stroke-width:3.414;stroke-dasharray:none;stroke-opacity:1;paint-order:markers stroke fill;stop-color:#000000"
       id="ellipse7242"
       cx="132.31598"
       cy="40.394974"
       rx="2.7657046"
       ry="2.5861714" />
  </g>
  <g
     id="g7254"
     transform="translate(-79.533214)">
    <ellipse
       style="opacity:0.287879;fill:#000000;fill-opacity:1;stroke:none;stroke-width:3.2;stroke-dasharray:none;stroke-opacity:1;paint-order:markers stroke fill;stop-color:#000000"
       id="ellipse7246"
       cx="138.4201"
       cy="81.777374"
       rx="15.798923"
       ry="6.7324953"
       inkscape:export-filename="..\..\..\..\..\..\Desktop\playingpiece_128px_blue.png"
       inkscape:export-xdpi="106.04"
       inkscape:export-ydpi="106.04" />
    <g
       id="g7250"
       transform="translate(137.34291,58.168761)"
       style="fill:#ff0000;stroke:#000000;stroke-width:3.2;stroke-dasharray:none;stroke-opacity:1">
      <path
         stroke="none"
         fill="#ffffff"
         d="m 13,-13.1 q 0,5.35 -3.9,9.1 l -0.65,0.65 0.8,1.55 q 3.7,8.25 3.75,20 v 0.15 Q 13,21.5 9.25,23.75 5.45,26 0,26 -5.35,26 -9.15,23.75 -13,21.5 -13,18.35 V 18.2 q 0.05,-11.75 3.85,-20 L -8.4,-3.3 -9.15,-4 Q -13,-7.75 -13,-13.1 q 0,-5.4 3.85,-9.15 Q -5.35,-26 0,-26 q 5.35,0 9.1,3.75 3.9,3.75 3.9,9.15"
         id="path7248"
         style="fill:#0000ff;stroke:#000000;stroke-width:3.2;stroke-dasharray:none;stroke-opacity:1" />
    </g>
    <ellipse
       style="fill:#ffffff;stroke:none;stroke-width:3.41365;stroke-dasharray:none;stroke-opacity:1;paint-order:markers stroke fill;stop-color:#000000"
       id="ellipse7252"
       cx="132.31598"
       cy="40.394974"
       rx="2.7657046"
       ry="2.5861714" />
  </g>
  <g
     id="g7264"
     transform="translate(-39.317774)"
     inkscape:export-filename="..\..\..\..\..\..\Desktop\playingpiece_128px_green.png"
     inkscape:export-xdpi="106.04"
     inkscape:export-ydpi="106.04">
    <ellipse
       style="opacity:0.287879;fill:#000000;fill-opacity:1;stroke:none;stroke-width:3.2;stroke-dasharray:none;stroke-opacity:1;paint-order:markers stroke fill;stop-color:#000000"
       id="ellipse7256"
       cx="138.4201"
       cy="81.777374"
       rx="15.798923"
       ry="6.7324953"
       inkscape:export-filename="..\..\..\..\..\..\Desktop\playingpiece_128px_yellow.png"
       inkscape:export-xdpi="106.04"
       inkscape:export-ydpi="106.04" />
    <g
       id="g7260"
       transform="translate(137.34291,58.168761)"
       style="fill:#55d400;stroke:#000000;stroke-width:3.2;stroke-dasharray:none;stroke-opacity:1">
      <path
         stroke="none"
         fill="#ffffff"
         d="m 13,-13.1 q 0,5.35 -3.9,9.1 l -0.65,0.65 0.8,1.55 q 3.7,8.25 3.75,20 v 0.15 Q 13,21.5 9.25,23.75 5.45,26 0,26 -5.35,26 -9.15,23.75 -13,21.5 -13,18.35 V 18.2 q 0.05,-11.75 3.85,-20 L -8.4,-3.3 -9.15,-4 Q -13,-7.75 -13,-13.1 q 0,-5.4 3.85,-9.15 Q -5.35,-26 0,-26 q 5.35,0 9.1,3.75 3.9,3.75 3.9,9.15"
         id="path7258"
         style="fill:#55d400;stroke:#000000;stroke-width:3.2;stroke-dasharray:none;stroke-opacity:1" />
    </g>
    <ellipse
       style="fill:#ffffff;stroke:none;stroke-width:3.414;stroke-dasharray:none;stroke-opacity:1;paint-order:markers stroke fill;stop-color:#000000"
       id="ellipse7262"
       cx="132.31598"
       cy="40.394974"
       rx="2.7657046"
       ry="2.5861714" />
  </g>
</svg>
